<svg width="1024" height="1024" viewBox="0 0 1024 1024" fill="none" xmlns="http://www.w3.org/2000/svg">
<path d="M149.616 426.909V446.852H95.9361V426.909H149.616ZM107.182 406.523H134.271V485.243C134.271 486.905 134.53 488.253 135.047 489.287C135.601 490.284 136.395 491.004 137.429 491.447C138.463 491.854 139.7 492.057 141.141 492.057C142.175 492.057 143.264 491.964 144.409 491.78C145.591 491.558 146.477 491.374 147.068 491.226L151.168 510.781C149.875 511.151 148.047 511.612 145.683 512.166C143.357 512.72 140.568 513.071 137.318 513.219C130.966 513.514 125.518 512.776 120.976 511.003C116.47 509.193 113.017 506.386 110.616 502.582C108.253 498.778 107.108 493.996 107.182 488.234V406.523ZM163.438 512V426.909H190.528V512H163.438ZM177.011 416.993C173.207 416.993 169.938 415.737 167.205 413.226C164.472 410.678 163.106 407.612 163.106 404.03C163.106 400.484 164.472 397.456 167.205 394.945C169.938 392.396 173.207 391.122 177.011 391.122C180.852 391.122 184.12 392.396 186.816 394.945C189.549 397.456 190.915 400.484 190.915 404.03C190.915 407.612 189.549 410.678 186.816 413.226C184.12 415.737 180.852 416.993 177.011 416.993ZM247.546 513.607C238.645 513.607 230.963 511.852 224.5 508.344C218.074 504.798 213.125 499.757 209.654 493.22C206.219 486.646 204.502 478.835 204.502 469.787C204.502 460.997 206.238 453.315 209.709 446.741C213.181 440.131 218.074 434.997 224.39 431.341C230.705 427.648 238.147 425.801 246.715 425.801C252.772 425.801 258.311 426.743 263.334 428.626C268.357 430.51 272.696 433.298 276.353 436.991C280.009 440.685 282.853 445.246 284.884 450.675C286.915 456.067 287.931 462.253 287.931 469.233V475.991H213.975V460.259H262.725C262.688 457.378 262.005 454.811 260.675 452.558C259.346 450.305 257.517 448.551 255.191 447.295C252.901 446.003 250.26 445.357 247.269 445.357C244.24 445.357 241.526 446.04 239.125 447.406C236.725 448.736 234.823 450.564 233.419 452.891C232.016 455.18 231.277 457.784 231.203 460.702V476.712C231.203 480.183 231.887 483.23 233.253 485.852C234.62 488.437 236.559 490.45 239.07 491.891C241.581 493.331 244.573 494.051 248.044 494.051C250.445 494.051 252.624 493.719 254.581 493.054C256.539 492.389 258.219 491.411 259.623 490.118C261.026 488.825 262.078 487.237 262.78 485.354L287.654 486.074C286.62 491.651 284.348 496.507 280.84 500.643C277.368 504.743 272.807 507.937 267.157 510.227C261.506 512.48 254.969 513.607 247.546 513.607ZM332.844 513.219C326.566 513.219 320.86 511.594 315.727 508.344C310.593 505.094 306.494 500.219 303.428 493.719C300.363 487.219 298.83 479.149 298.83 469.51C298.83 459.501 300.418 451.266 303.594 444.803C306.771 438.339 310.925 433.557 316.059 430.455C321.229 427.352 326.788 425.801 332.734 425.801C337.202 425.801 341.025 426.577 344.201 428.128C347.377 429.642 349.999 431.599 352.067 434C354.136 436.401 355.705 438.893 356.776 441.479H357.33V398.545H384.42V512H357.607V498.206H356.776C355.631 500.828 354.006 503.284 351.901 505.574C349.796 507.864 347.156 509.71 343.979 511.114C340.84 512.517 337.129 513.219 332.844 513.219ZM342.262 492.112C345.549 492.112 348.356 491.189 350.683 489.342C353.009 487.459 354.8 484.818 356.056 481.42C357.312 478.023 357.94 474.034 357.94 469.455C357.94 464.801 357.312 460.794 356.056 457.433C354.837 454.072 353.046 451.487 350.683 449.678C348.356 447.868 345.549 446.963 342.262 446.963C338.901 446.963 336.058 447.886 333.731 449.733C331.404 451.58 329.631 454.183 328.413 457.544C327.231 460.905 326.64 464.875 326.64 469.455C326.64 474.034 327.249 478.023 328.468 481.42C329.687 484.818 331.441 487.459 333.731 489.342C336.058 491.189 338.901 492.112 342.262 492.112ZM441.327 513.607C432.426 513.607 424.745 511.852 418.282 508.344C411.855 504.798 406.907 499.757 403.435 493.22C400 486.646 398.283 478.835 398.283 469.787C398.283 460.997 400.019 453.315 403.49 446.741C406.962 440.131 411.855 434.997 418.171 431.341C424.486 427.648 431.928 425.801 440.496 425.801C446.553 425.801 452.093 426.743 457.115 428.626C462.138 430.51 466.478 433.298 470.134 436.991C473.79 440.685 476.634 445.246 478.665 450.675C480.696 456.067 481.712 462.253 481.712 469.233V475.991H407.756V460.259H456.506C456.469 457.378 455.786 454.811 454.456 452.558C453.127 450.305 451.299 448.551 448.972 447.295C446.682 446.003 444.042 445.357 441.05 445.357C438.022 445.357 435.307 446.04 432.907 447.406C430.506 448.736 428.604 450.564 427.201 452.891C425.797 455.18 425.059 457.784 424.985 460.702V476.712C424.985 480.183 425.668 483.23 427.034 485.852C428.401 488.437 430.34 490.45 432.851 491.891C435.363 493.331 438.354 494.051 441.826 494.051C444.226 494.051 446.405 493.719 448.363 493.054C450.32 492.389 452 491.411 453.404 490.118C454.807 488.825 455.86 487.237 456.561 485.354L481.435 486.074C480.401 491.651 478.13 496.507 474.621 500.643C471.15 504.743 466.588 507.937 460.938 510.227C455.287 512.48 448.75 513.607 441.327 513.607ZM519.978 489.675L520.089 457.378H523.856L547.788 426.909H578.478L542.913 470.562H535.766L519.978 489.675ZM495.548 512V398.545H522.637V512H495.548ZM548.397 512L526.127 476.656L543.965 457.433L579.697 512H548.397ZM643.072 475.271V426.909H670.106V512H644.29V496.156H643.404C641.521 501.364 638.308 505.5 633.765 508.565C629.259 511.594 623.812 513.108 617.423 513.108C611.624 513.108 606.528 511.778 602.133 509.119C597.738 506.46 594.322 502.749 591.884 497.984C589.447 493.183 588.21 487.57 588.173 481.143V426.909H615.262V475.825C615.299 480.442 616.518 484.08 618.918 486.739C621.319 489.398 624.587 490.727 628.724 490.727C631.42 490.727 633.839 490.136 635.981 488.955C638.16 487.736 639.877 485.982 641.133 483.692C642.425 481.365 643.072 478.558 643.072 475.271ZM714.438 463.472V512H687.348V426.909H713.108V442.531H714.05C715.934 437.324 719.147 433.243 723.689 430.288C728.232 427.297 733.642 425.801 739.921 425.801C745.904 425.801 751.093 427.149 755.488 429.845C759.919 432.504 763.354 436.234 765.792 441.036C768.266 445.8 769.485 451.376 769.448 457.766V512H742.358V463.084C742.395 458.357 741.195 454.663 738.757 452.004C736.357 449.345 733.015 448.016 728.73 448.016C725.887 448.016 723.375 448.643 721.196 449.899C719.054 451.118 717.392 452.872 716.211 455.162C715.066 457.452 714.475 460.222 714.438 463.472ZM834.249 426.909V446.852H780.569V426.909H834.249ZM791.815 406.523H818.904V485.243C818.904 486.905 819.163 488.253 819.68 489.287C820.234 490.284 821.028 491.004 822.062 491.447C823.096 491.854 824.333 492.057 825.773 492.057C826.808 492.057 827.897 491.964 829.042 491.78C830.224 491.558 831.11 491.374 831.701 491.226L835.8 510.781C834.508 511.151 832.68 511.612 830.316 512.166C827.989 512.72 825.201 513.071 821.951 513.219C815.599 513.514 810.151 512.776 805.609 511.003C801.103 509.193 797.65 506.386 795.249 502.582C792.886 498.778 791.741 493.996 791.815 488.234V406.523ZM872.058 513.44C866.629 513.44 861.81 512.536 857.599 510.726C853.426 508.879 850.121 506.109 847.683 502.416C845.283 498.686 844.082 494.014 844.082 488.401C844.082 483.673 844.913 479.685 846.575 476.435C848.237 473.185 850.527 470.544 853.445 468.513C856.362 466.482 859.723 464.949 863.527 463.915C867.331 462.844 871.393 462.124 875.714 461.754C880.553 461.311 884.449 460.849 887.403 460.369C890.358 459.852 892.5 459.132 893.83 458.209C895.196 457.249 895.879 455.901 895.879 454.165V453.888C895.879 451.044 894.901 448.847 892.943 447.295C890.986 445.744 888.345 444.969 885.021 444.969C881.439 444.969 878.558 445.744 876.379 447.295C874.2 448.847 872.815 450.989 872.224 453.722L847.24 452.835C847.979 447.665 849.881 443.048 852.946 438.986C856.048 434.886 860.295 431.673 865.688 429.347C871.116 426.983 877.635 425.801 885.243 425.801C890.672 425.801 895.676 426.447 900.256 427.74C904.835 428.996 908.824 430.842 912.222 433.28C915.619 435.68 918.241 438.635 920.088 442.143C921.972 445.652 922.913 449.659 922.913 454.165V512H897.43V500.145H896.766C895.251 503.026 893.313 505.463 890.949 507.457C888.622 509.452 885.871 510.947 882.695 511.945C879.555 512.942 876.01 513.44 872.058 513.44ZM880.423 495.713C883.341 495.713 885.963 495.122 888.29 493.94C890.653 492.759 892.537 491.134 893.94 489.065C895.344 486.96 896.045 484.523 896.045 481.753V473.665C895.27 474.071 894.328 474.44 893.22 474.773C892.149 475.105 890.967 475.419 889.675 475.714C888.382 476.01 887.053 476.268 885.686 476.49C884.32 476.712 883.009 476.915 881.753 477.099C879.205 477.506 877.026 478.134 875.216 478.983C873.443 479.832 872.077 480.94 871.116 482.307C870.193 483.636 869.732 485.224 869.732 487.071C869.732 489.878 870.729 492.02 872.723 493.497C874.754 494.974 877.321 495.713 880.423 495.713Z" fill="black" style="fill:black;fill-opacity:1;"/>
</svg>
