<svg width="1024" height="1024" viewBox="0 0 1024 1024" fill="none" xmlns="http://www.w3.org/2000/svg">
<path d="M550.821 640.607C546.832 640.607 543.416 639.203 540.572 636.396C537.766 633.589 536.381 630.192 536.418 626.203C536.381 622.288 537.766 618.946 540.572 616.176C543.416 613.369 546.832 611.966 550.821 611.966C554.588 611.966 557.912 613.369 560.793 616.176C563.71 618.946 565.188 622.288 565.224 626.203C565.188 628.862 564.486 631.281 563.119 633.46C561.79 635.639 560.036 637.375 557.857 638.668C555.714 639.96 553.369 640.607 550.821 640.607ZM622.838 640.607C613.864 640.607 606.163 638.76 599.737 635.067C593.348 631.374 588.436 626.24 585.001 619.666C581.567 613.055 579.849 605.411 579.849 596.732C579.849 588.016 581.567 580.371 585.001 573.797C588.473 567.186 593.403 562.034 599.793 558.341C606.219 554.648 613.882 552.801 622.783 552.801C630.649 552.801 637.5 554.223 643.335 557.067C649.207 559.911 653.787 563.936 657.074 569.143C660.398 574.314 662.152 580.389 662.337 587.369H637.02C636.503 583.011 635.026 579.595 632.588 577.121C630.188 574.646 627.048 573.409 623.17 573.409C620.031 573.409 617.28 574.295 614.916 576.068C612.553 577.804 610.706 580.389 609.376 583.824C608.084 587.222 607.438 591.432 607.438 596.455C607.438 601.477 608.084 605.724 609.376 609.196C610.706 612.631 612.553 615.234 614.916 617.007C617.28 618.743 620.031 619.611 623.17 619.611C625.682 619.611 627.898 619.075 629.818 618.004C631.776 616.933 633.382 615.364 634.638 613.295C635.893 611.19 636.688 608.642 637.02 605.651H662.337C662.078 612.668 660.324 618.798 657.074 624.043C653.861 629.287 649.337 633.368 643.501 636.286C637.703 639.166 630.815 640.607 622.838 640.607ZM715.92 640.607C706.983 640.607 699.301 638.778 692.875 635.122C686.485 631.429 681.555 626.295 678.083 619.722C674.649 613.111 672.931 605.447 672.931 596.732C672.931 587.979 674.649 580.315 678.083 573.741C681.555 567.131 686.485 561.997 692.875 558.341C699.301 554.648 706.983 552.801 715.92 552.801C724.858 552.801 732.521 554.648 738.91 558.341C745.336 561.997 750.267 567.131 753.701 573.741C757.173 580.315 758.909 587.979 758.909 596.732C758.909 605.447 757.173 613.111 753.701 619.722C750.267 626.295 745.336 631.429 738.91 635.122C732.521 638.778 724.858 640.607 715.92 640.607ZM716.086 620.165C719.336 620.165 722.088 619.168 724.341 617.173C726.593 615.179 728.311 612.409 729.493 608.864C730.711 605.318 731.321 601.219 731.321 596.565C731.321 591.838 730.711 587.702 729.493 584.156C728.311 580.611 726.593 577.841 724.341 575.847C722.088 573.852 719.336 572.855 716.086 572.855C712.725 572.855 709.882 573.852 707.555 575.847C705.265 577.841 703.511 580.611 702.292 584.156C701.11 587.702 700.52 591.838 700.52 596.565C700.52 601.219 701.11 605.318 702.292 608.864C703.511 612.409 705.265 615.179 707.555 617.173C709.882 619.168 712.725 620.165 716.086 620.165ZM772.786 639V553.909H798.546V569.531H799.488C801.26 564.361 804.252 560.28 808.462 557.288C812.672 554.297 817.695 552.801 823.53 552.801C829.439 552.801 834.499 554.315 838.709 557.344C842.919 560.372 845.597 564.435 846.742 569.531H847.628C849.216 564.472 852.319 560.428 856.935 557.399C861.551 554.334 866.999 552.801 873.277 552.801C881.328 552.801 887.865 555.386 892.888 560.557C897.911 565.69 900.422 572.744 900.422 581.719V639H873.333V587.923C873.333 583.676 872.243 580.445 870.064 578.229C867.885 575.976 865.06 574.849 861.588 574.849C857.858 574.849 854.922 576.068 852.78 578.506C850.675 580.906 849.623 584.138 849.623 588.2V639H823.586V587.646C823.586 583.695 822.515 580.574 820.373 578.284C818.23 575.994 815.405 574.849 811.897 574.849C809.533 574.849 807.446 575.422 805.637 576.567C803.827 577.675 802.405 579.263 801.371 581.331C800.374 583.399 799.875 585.837 799.875 588.643V639H772.786Z" fill="#8F8F8F" style="fill:#8F8F8F;fill:color(display-p3 0.5588 0.5588 0.5588);fill-opacity:1;"/>
</svg>
