<?xml version="1.0" encoding="UTF-8"?>
<svg width="144px" height="135px" viewBox="0 0 144 135" version="1.1" xmlns="http://www.w3.org/2000/svg" xmlns:xlink="http://www.w3.org/1999/xlink">
    <!-- Generator: Sketch 58 (84663) - https://sketch.com -->
    <title>path2922</title>
    <g id="Page-1" stroke="none" stroke-width="1" fill="none" fill-rule="evenodd">
        <g id="Artboard" transform="translate(-117.000000, -49.000000)" fill="#000000" fill-rule="nonzero">
            <path d="M261.029,138.659 C255.832,127.228 244.162,125.561 236.857,120.797 C233.361,118.517 231.946,113.94 231.389,110.114 C227.948,110.471 222.217,110.523 219.48,103.564 C217.328,98.092 218.22,89.024 211.016,81.341 C204.467,74.355 196.409,72.053 189.016,72.571 C198.077,78.63 194.503,87.762 187.924,87.762 C178.766,87.762 176.205,76.733 162.799,76.733 C159.733,76.733 157.031,77.691 155.345,78.805 C162.853,79.753 164.649,85.909 166.995,91.48 C168.861,95.909 172.195,98.488 177.078,99.838 C176.196,100.344 174.09,100.968 171.364,100.968 C165.442,100.968 161.319,97.852 157.078,93.485 C153.348,89.64 149.186,85.997 142.208,85.997 C138.775,85.997 136.146,87.084 135.235,87.698 C139.068,88.301 144.725,90.584 144.725,94.636 C144.725,98.101 140.893,99.428 137.753,96.112 C134.256,92.421 129.349,89.627 123.732,89.627 C120.957,89.627 118.182,90.512 117.003,91.66 C123.659,92.428 127.603,96.702 131.724,106.233 C134.05,111.613 137.363,116.699 145.703,116.793 C149.499,116.839 154.889,115.034 158.053,118.071 C161.048,120.945 160.042,124.716 161.411,127.77 C163.136,131.612 166.708,133.592 173.693,133.956 C167.897,138.805 154.044,135.897 149.326,130.94 C149.948,143.345 159.733,154.473 179.157,149.24 C182.533,148.332 184.941,148.845 186.24,152.261 C188.024,156.95 192.248,157.728 196.24,157.234 C205.369,156.102 210.789,157.94 216.043,164.219 C217.191,153.831 209.765,147.728 205.102,144.812 C200.66,142.033 200.225,139.144 200.17,136.905 C203.386,140.583 207.576,142.142 211.935,142.756 C219.472,143.816 224.871,145.919 227.728,149.959 C228.562,138.541 216.574,135.96 215.105,131.157 C218.876,133.618 221.657,134.512 225.585,134.213 C230.823,133.817 237.194,129.702 241.895,137.755 C247.893,133.856 255.752,135.246 261.029,138.659 M189.016,123.262 C185.287526,123.262 182.265,120.239474 182.265,116.511 L182.265,116.51 C182.265,112.781526 185.287526,109.759 189.016,109.759 C192.744474,109.759 195.767,112.781526 195.767,116.51 L195.767,116.511 C195.767,120.239474 192.744474,123.262 189.016,123.262 Z M189.016,62.502 C192.744474,62.502 195.767,59.4794743 195.767,55.751 C195.767,52.0225257 192.744474,49 189.016,49 C185.287526,49 182.265,52.0225257 182.265,55.751 C182.265,59.4794743 185.287526,62.502 189.016,62.502 Z M189.0165,170.521 L189.0155,170.521 C185.287302,170.521 182.265,173.543302 182.265,177.2715 C182.265,180.999698 185.287302,184.022 189.0155,184.022 L189.0165,184.022 C192.744698,184.022 195.767,180.999698 195.767,177.2715 C195.767,173.543302 192.744698,170.521 189.0165,170.521 Z" id="path2922" transform="translate(189.016000, 116.511000) scale(-1, -1) translate(-189.016000, -116.511000) "></path>
        </g>
    </g>
</svg>